custom-analysis
version=1
nRows=4
nColumns=146
inDegrees=no

This file contains tibia displacement and acting force.

Units are S.I. units (seconds, meters, Newtons, ...)
Angles are in degrees.

endheader
time	APT	SIT	knee_angle	aACL_R_force	pACL_R_force	aPCL_R_force	pPCL_R_force	aMCL_R_force	mMCL_R_force	pMCL_R_force	aLCL_R_force	mLCL_R_force	pLCL_R_force	aPCL_L_force	pPCL_L_force	aMCL_L_force	aLCL_L_force	aACL_R_length	pACL_R_length	aPCL_R_length	pPCL_R_length	aMCL_R_length	mMCL_R_length	pMCL_R_length	aLCL_R_length	mLCL_R_length	pLCL_R_length	aPCL_L_length	pPCL_L_length	aMCL_L_length	aLCL_L_length	aACL_R_strain	pACL_R_strain	aPCL_R_strain	pPCL_R_strain	aMCL_R_strain	mMCL_R_strain	pMCL_R_strain	aLCL_R_strain	mLCL_R_strain	pLCL_R_strain	aPCL_L_strain	pPCL_L_strain	aMCL_L_strain	aLCL_L_strain	femur_lat_meniscii_l.femur_lat_l.force.X	femur_lat_meniscii_l.femur_lat_l.force.Y	femur_lat_meniscii_l.femur_lat_l.force.Z	femur_lat_meniscii_l.femur_lat_l.torque.X	femur_lat_meniscii_l.femur_lat_l.torque.Y	femur_lat_meniscii_l.femur_lat_l.torque.Z	femur_lat_meniscii_l.meniscus_lat_l.force.X	femur_lat_meniscii_l.meniscus_lat_l.force.Y	femur_lat_meniscii_l.meniscus_lat_l.force.Z	femur_lat_meniscii_l.meniscus_lat_l.torque.X	femur_lat_meniscii_l.meniscus_lat_l.torque.Y	femur_lat_meniscii_l.meniscus_lat_l.torque.Z	femur_med_meniscii_l.femur_med_l.force.X	femur_med_meniscii_l.femur_med_l.force.Y	femur_med_meniscii_l.femur_med_l.force.Z	femur_med_meniscii_l.femur_med_l.torque.X	femur_med_meniscii_l.femur_med_l.torque.Y	femur_med_meniscii_l.femur_med_l.torque.Z	femur_med_meniscii_l.meniscus_med_l.force.X	femur_med_meniscii_l.meniscus_med_l.force.Y	femur_med_meniscii_l.meniscus_med_l.force.Z	femur_med_meniscii_l.meniscus_med_l.torque.X	femur_med_meniscii_l.meniscus_med_l.torque.Y	femur_med_meniscii_l.meniscus_med_l.torque.Z	femur_lat_meniscii_r.femur_lat_r.force.X	femur_lat_meniscii_r.femur_lat_r.force.Y	femur_lat_meniscii_r.femur_lat_r.force.Z	femur_lat_meniscii_r.femur_lat_r.torque.X	femur_lat_meniscii_r.femur_lat_r.torque.Y	femur_lat_meniscii_r.femur_lat_r.torque.Z	femur_lat_meniscii_r.meniscus_lat_r.force.X	femur_lat_meniscii_r.meniscus_lat_r.force.Y	femur_lat_meniscii_r.meniscus_lat_r.force.Z	femur_lat_meniscii_r.meniscus_lat_r.torque.X	femur_lat_meniscii_r.meniscus_lat_r.torque.Y	femur_lat_meniscii_r.meniscus_lat_r.torque.Z	femur_med_meniscii_r.femur_med_r.force.X	femur_med_meniscii_r.femur_med_r.force.Y	femur_med_meniscii_r.femur_med_r.force.Z	femur_med_meniscii_r.femur_med_r.torque.X	femur_med_meniscii_r.femur_med_r.torque.Y	femur_med_meniscii_r.femur_med_r.torque.Z	femur_med_meniscii_r.meniscus_med_r.force.X	femur_med_meniscii_r.meniscus_med_r.force.Y	femur_med_meniscii_r.meniscus_med_r.force.Z	femur_med_meniscii_r.meniscus_med_r.torque.X	femur_med_meniscii_r.meniscus_med_r.torque.Y	femur_med_meniscii_r.meniscus_med_r.torque.Z	femur_med_tibia_l.tibia_upper_l.force.X	femur_med_tibia_l.tibia_upper_l.force.Y	femur_med_tibia_l.tibia_upper_l.force.Z	femur_med_tibia_l.tibia_upper_l.torque.X	femur_med_tibia_l.tibia_upper_l.torque.Y	femur_med_tibia_l.tibia_upper_l.torque.Z	femur_med_tibia_l.femur_med_l.force.X	femur_med_tibia_l.femur_med_l.force.Y	femur_med_tibia_l.femur_med_l.force.Z	femur_med_tibia_l.femur_med_l.torque.X	femur_med_tibia_l.femur_med_l.torque.Y	femur_med_tibia_l.femur_med_l.torque.Z	femur_lat_tibia_l.tibia_upper_l.force.X	femur_lat_tibia_l.tibia_upper_l.force.Y	femur_lat_tibia_l.tibia_upper_l.force.Z	femur_lat_tibia_l.tibia_upper_l.torque.X	femur_lat_tibia_l.tibia_upper_l.torque.Y	femur_lat_tibia_l.tibia_upper_l.torque.Z	femur_lat_tibia_l.femur_lat_l.force.X	femur_lat_tibia_l.femur_lat_l.force.Y	femur_lat_tibia_l.femur_lat_l.force.Z	femur_lat_tibia_l.femur_lat_l.torque.X	femur_lat_tibia_l.femur_lat_l.torque.Y	femur_lat_tibia_l.femur_lat_l.torque.Z	femur_med_tibia_r.tibia_upper_r.force.X	femur_med_tibia_r.tibia_upper_r.force.Y	femur_med_tibia_r.tibia_upper_r.force.Z	femur_med_tibia_r.tibia_upper_r.torque.X	femur_med_tibia_r.tibia_upper_r.torque.Y	femur_med_tibia_r.tibia_upper_r.torque.Z	femur_med_tibia_r.femur_med_r.force.X	femur_med_tibia_r.femur_med_r.force.Y	femur_med_tibia_r.femur_med_r.force.Z	femur_med_tibia_r.femur_med_r.torque.X	femur_med_tibia_r.femur_med_r.torque.Y	femur_med_tibia_r.femur_med_r.torque.Z	femur_lat_tibia_r.tibia_upper_r.force.X	femur_lat_tibia_r.tibia_upper_r.force.Y	femur_lat_tibia_r.tibia_upper_r.force.Z	femur_lat_tibia_r.tibia_upper_r.torque.X	femur_lat_tibia_r.tibia_upper_r.torque.Y	femur_lat_tibia_r.tibia_upper_r.torque.Z	femur_lat_tibia_r.femur_lat_r.force.X	femur_lat_tibia_r.femur_lat_r.force.Y	femur_lat_tibia_r.femur_lat_r.force.Z	femur_lat_tibia_r.femur_lat_r.torque.X	femur_lat_tibia_r.femur_lat_r.torque.Y	femur_lat_tibia_r.femur_lat_r.torque.Z	femur_lat_meniscii_force_r	femur_med_meniscii_force_r	femur_lat_tibia_force_r	femur_med_tibia_force_r
      0.24662028	      0.00547471	      0.00120663	     89.99998384	     33.33494393	     11.49534873	    788.74699842	    376.47713859	      8.62567378	     -0.79349510	      0.00000000	      0.00000000	      0.00000000	      0.00000000	      0.00000000	      0.00000000	      0.00000001	      0.00000000	      0.03304396	      0.02600493	      0.03626176	      0.03265413	      0.06226029	      0.06006442	      0.05653173	      0.04878911	      0.04311981	      0.03789341	      0.01525851	      0.01651186	      0.06550154	      0.04489616	      0.06574498	      0.03776039	      0.16614907	      0.09255731	      0.03720473	      0.00453092	     -0.00345988	     -0.12841105	     -0.23435935	     -0.27605175	      0.00000079	     -0.32847694	      0.00000060	     -0.00000086	      2.76307435	     50.99597937	     -9.56042239	      5.21997485	     -0.02578839	      1.48581788	     -2.76307435	    -50.99597937	      9.56042239	     -1.74637766	      0.02558040	     -0.48301696	     -3.31599387	     20.97615968	     -3.40468921	      0.94473225	     -0.02138609	     -1.00501789	      3.31599387	    -20.97615968	      3.40468921	      0.28075727	      0.00368718	     -0.29758878	    208.06839486	     -4.33241524	     37.24037125	    -14.94765278	      5.09457171	     84.56485795	   -208.06839486	      4.33241524	    -37.24037125	     -0.01759431	     -6.94674908	     -1.16691010	     75.04785630	    -56.34370050	    -12.28248871	      3.91099478	     -1.44744130	     30.27327085	    -75.04785630	     56.34370050	     12.28248871	      0.80728660	      1.51741853	     -1.76486876	      0.00000000	      0.00000000	      0.00000000	      0.00000000	      0.00000000	      0.00000000	      0.00000000	      0.00000000	      0.00000000	      0.00000000	      0.00000000	      0.00000000	      0.00000000	      0.00000000	      0.00000000	      0.00000000	      0.00000000	      0.00000000	      0.00000000	      0.00000000	      0.00000000	      0.00000000	      0.00000000	      0.00000000	   -540.71013684	     26.15168372	    111.61547643	     -0.06222011	     10.54643177	     -2.72023682	    540.71013684	    -26.15168372	   -111.61547643	     44.76816769	     -9.37863847	    219.02016265	    -37.65395030	     -5.59867537	    -10.99232427	      0.21355647	     -1.38829677	     -0.02431263	     37.65395030	      5.59867537	     10.99232427	     -4.60498961	      0.93104552	     15.29995430	    211.41918554	     94.64487757	     39.62317922	    552.72902693
      0.24839686	      0.00547924	      0.00120614	     89.99998384	     33.13644360	     11.19550119	    788.80949064	    376.57168271	      8.68679856	     -0.67719365	      0.00000000	      0.00000000	      0.00000000	      0.00000000	      0.00000000	      0.00000000	      0.00000001	      0.00000000	      0.03304777	      0.02600808	      0.03626174	      0.03265317	      0.06225887	      0.06006224	      0.05652900	      0.04879467	      0.04312519	      0.03789812	      0.01525851	      0.01651186	      0.06550154	      0.04489616	      0.06586803	      0.03788613	      0.16614856	      0.09252491	      0.03718117	      0.00449445	     -0.00350789	     -0.12831171	     -0.23426377	     -0.27596167	      0.00000079	     -0.32847694	      0.00000060	     -0.00000086	      2.76307435	     50.99597937	     -9.56042239	      5.21997485	     -0.02578839	      1.48581788	     -2.76307435	    -50.99597937	      9.56042239	     -1.74637766	      0.02558040	     -0.48301696	     -3.31599387	     20.97615968	     -3.40468921	      0.94473225	     -0.02138609	     -1.00501789	      3.31599387	    -20.97615968	      3.40468921	      0.28075727	      0.00368718	     -0.29758878	    207.60907090	     -4.06216671	     38.76905971	    -15.57515720	      5.10337335	     84.37520449	   -207.60907090	      4.06216671	    -38.76905971	     -0.00286347	     -6.99674594	     -1.15298482	     75.43166663	    -56.42319216	    -11.56298396	      3.62368473	     -1.44893540	     30.42669769	    -75.43166663	     56.42319216	     11.56298396	      0.80577699	      1.49714628	     -1.76614869	      0.00000000	      0.00000000	      0.00000000	      0.00000000	      0.00000000	      0.00000000	      0.00000000	      0.00000000	      0.00000000	      0.00000000	      0.00000000	      0.00000000	      0.00000000	      0.00000000	      0.00000000	      0.00000000	      0.00000000	      0.00000000	      0.00000000	      0.00000000	      0.00000000	      0.00000000	      0.00000000	      0.00000000	   -542.96884550	     25.78286834	    108.54585380	     -0.05598949	     10.45277055	     -2.70912587	    542.96884550	    -25.78286834	   -108.54585380	     43.53170755	     -9.37922889	    219.92867535	    -36.33471159	     -5.43848634	    -10.83897263	      0.20845785	     -1.34905506	     -0.02177864	     36.33471159	      5.43848634	     10.83897263	     -4.53900695	      0.90134075	     14.76341019	    211.23699370	     94.90635143	     38.30498306	    554.31229994
      0.25017344	      0.00548346	      0.00120575	     89.99998384	     33.46597775	     11.54874527	    788.77960571	    376.28803050	      8.65829570	     -0.70954426	      0.00000000	      0.00000000	      0.00000000	      0.00000000	      0.00000000	      0.00000000	      0.00000001	      0.00000000	      0.03305068	      0.02601025	      0.03626191	      0.03265248	      0.06225759	      0.06006027	      0.05652660	      0.04880010	      0.04313049	      0.03790284	      0.01525851	      0.01651186	      0.06550154	      0.04489616	      0.06596200	      0.03797271	      0.16615400	      0.09250201	      0.03715976	      0.00446149	     -0.00355036	     -0.12821478	     -0.23416977	     -0.27587157	      0.00000079	     -0.32847694	      0.00000060	     -0.00000086	      2.76307435	     50.99597937	     -9.56042239	      5.21997485	     -0.02578839	      1.48581788	     -2.76307435	    -50.99597937	      9.56042239	     -1.74637766	      0.02558040	     -0.48301696	     -3.31599387	     20.97615968	     -3.40468921	      0.94473225	     -0.02138609	     -1.00501789	      3.31599387	    -20.97615968	      3.40468921	      0.28075727	      0.00368718	     -0.29758878	    207.44031525	     -3.99171430	     37.33134381	    -14.99287117	      5.08094032	     84.30577634	   -207.44031525	      3.99171430	    -37.33134381	     -0.00787722	     -6.93118190	     -1.14846074	     75.67125652	    -56.59119971	    -12.27597508	      3.90301802	     -1.46059169	     30.52372314	    -75.67125652	     56.59119971	     12.27597508	      0.81240121	      1.52880054	     -1.77149161	      0.00000000	      0.00000000	      0.00000000	      0.00000000	      0.00000000	      0.00000000	      0.00000000	      0.00000000	      0.00000000	      0.00000000	      0.00000000	      0.00000000	      0.00000000	      0.00000000	      0.00000000	      0.00000000	      0.00000000	      0.00000000	      0.00000000	      0.00000000	      0.00000000	      0.00000000	      0.00000000	      0.00000000	   -543.75935087	     25.90356908	    111.59036235	     -0.06306548	     10.59191894	     -2.71184870	    543.75935087	    -25.90356908	   -111.59036235	     44.76105107	     -9.43085250	    220.24740782	    -35.27643014	     -5.27768367	    -10.32122270	      0.20084301	     -1.30094072	     -0.02108517	     35.27643014	      5.27768367	     10.32122270	     -4.32423205	      0.87227747	     14.33341992	    210.81045374	     95.28589881	     37.13230543	    555.69563209
      0.25195003	      0.00548751	      0.00120530	     89.99998384	     33.27037227	     11.25702602	    788.84257784	    376.39028747	      8.73139239	     -0.58476721	      0.00000000	      0.00000000	      0.00000000	      0.00000000	      0.00000000	      0.00000000	      0.00000001	      0.00000000	      0.03305411	      0.02601308	      0.03626191	      0.03265163	      0.06225632	      0.06005831	      0.05652415	      0.04880511	      0.04313535	      0.03790710	      0.01525851	      0.01651186	      0.06550154	      0.04489616	      0.06607251	      0.03808593	      0.16615416	      0.09247356	      0.03713859	      0.00442876	     -0.00359342	     -0.12812512	     -0.23408347	     -0.27579013	      0.00000079	     -0.32847694	      0.00000060	     -0.00000086	      2.76307435	     50.99597937	     -9.56042239	      5.21997485	     -0.02578839	      1.48581788	     -2.76307435	    -50.99597937	      9.56042239	     -1.74637766	      0.02558040	     -0.48301696	     -3.31599387	     20.97615968	     -3.40468921	      0.94473225	     -0.02138609	     -1.00501789	      3.31599387	    -20.97615968	      3.40468921	      0.28075727	      0.00368718	     -0.29758878	    207.04259909	     -3.76378241	     38.76437244	    -15.58049245	      5.09009572	     84.14155424	   -207.04259909	      3.76378241	    -38.76437244	      0.00521140	     -6.97911810	     -1.13655251	     76.00522148	    -56.67572028	    -11.57113269	      3.62134068	     -1.46112746	     30.65737026	    -76.00522148	     56.67572028	     11.57113269	      0.81109136	      1.50815199	     -1.77317733	      0.00000000	      0.00000000	      0.00000000	      0.00000000	      0.00000000	      0.00000000	      0.00000000	      0.00000000	      0.00000000	      0.00000000	      0.00000000	      0.00000000	      0.00000000	      0.00000000	      0.00000000	      0.00000000	      0.00000000	      0.00000000	      0.00000000	      0.00000000	      0.00000000	      0.00000000	      0.00000000	      0.00000000	   -545.79721830	     25.53532801	    108.64314393	     -0.05735021	     10.50024193	     -2.70042253	    545.79721830	    -25.53532801	   -108.64314393	     43.57414923	     -9.42928321	    221.06671525	    -34.10586524	     -5.13101942	    -10.19127053	      0.19624912	     -1.26638355	     -0.01902816	     34.10586524	      5.13101942	     10.19127053	     -4.26808244	      0.84598764	     13.85738695	    210.67387230	     95.51346541	     35.96386241	    557.09064720
